<svg data-v-0dd9719b="" version="1.0" xmlns="http://www.w3.org/2000/svg" xmlns:xlink="http://www.w3.org/1999/xlink" width="100%" height="100%" viewBox="0 0 340.000000 250.000000" preserveAspectRatio="xMidYMid meet" color-interpolation-filters="sRGB" style="margin: auto;"> <rect data-v-0dd9719b="" x="0" y="0" width="100%" height="100%" fill="#fff" fill-opacity="1" class="background"></rect> <rect data-v-0dd9719b="" x="0" y="0" width="100%" height="100%" fill="url(#watermark)" fill-opacity="1" class="watermarklayer"></rect> <g data-v-0dd9719b="" fill="#333" class="icon-text-wrapper icon-svg-group iconsvg" transform="translate(49.78999328613281,95.9186782836914)"><g class="iconsvg-imagesvg" transform="translate(0,0)"><g><rect fill="#333" fill-opacity="0" stroke-width="2" x="0" y="0" width="60" height="58.16264213495672" class="image-rect"></rect> <svg x="0" y="0" width="60" height="58.16264213495672" filtersec="colorsb5879310269" class="image-svg-svg primary" style="overflow: visible;"><svg xmlns="http://www.w3.org/2000/svg" viewBox="0 0 73.13999938964844 70.9000015258789"><title>页面-1 (3)</title><g fill-rule="evenodd"><path d="M33.53 0H0v29.66l20.06-6V16h12.66a24.3 24.3 0 0 1 8.77 1.52 12.36 12.36 0 0 1 3.94 2.08 1.7 1.7 0 0 1 .34.26A15.18 15.18 0 0 1 49 23a17.38 17.38 0 0 1 1.52 2.22 2.1 2.1 0 0 1 .18.37 15.88 15.88 0 0 1 2.16 7.85c.06.66.08 1.33.08 2C52.88 46.92 45.79 54 35 54.81L21.69 70.9h11.84c23.5 0 39.61-13.67 39.61-35.46S57 0 33.53 0" fill="#f8a601"></path><path d="M50.64 25.57a15.88 15.88 0 0 1 2.16 7.85L35 54.81 21.69 70.9H4.09l18.54-16 29.51-25.46a17.78 17.78 0 0 0-1.5-3.87zM48.92 23a17.38 17.38 0 0 1 1.52 2.22L20.06 48.35 0 63.62V48.84l20.06-10.6zm-7.43-5.47a12.36 12.36 0 0 1 3.94 2.08L20.06 31.66 0 41.2V29.66l20.06-6z" fill="#4c73fe"></path></g></svg></svg> <!----></g></g> <g transform="translate(67,9.886322021484375)"><g data-gra="path-name" fill-rule="" class="tp-name iconsvg-namesvg"><g transform="scale(1)"><g><path d="M31.42-16.74L31.42-16.74Q31.42-11.04 29.45-6.75 27.49-2.45 23.76-0.12 20.03 2.21 14.87 2.21L14.87 2.21 3.93 2.21 3.93-35.69 14.87-35.69Q20.03-35.69 23.76-33.35 27.49-31.02 29.45-26.73 31.42-22.43 31.42-16.74ZM29.21-16.74L29.21-16.74Q29.21-21.79 27.56-25.6 25.92-29.4 22.68-31.49 19.44-33.58 14.78-33.58L14.78-33.58 6.09-33.58 6.09 0.1 14.78 0.1Q19.39 0.1 22.65-2.01 25.92-4.12 27.56-7.9 29.21-11.68 29.21-16.74ZM59.15-18.65L59.15-4.37Q59.15-0.25 59.3 2.21L59.3 2.21 57.48 2.21Q57.28 0.49 57.19-4.32L57.19-4.32Q55.96-0.98 53.55 0.86 51.15 2.7 47.81 2.7L47.81 2.7Q44.57 2.7 42.09 0.91 39.61-0.88 38.24-4.1 36.86-7.31 36.86-11.49L36.86-11.49Q36.86-15.66 38.24-18.9 39.61-22.14 42.09-23.93 44.57-25.72 47.81-25.72L47.81-25.72Q51.15-25.72 53.55-23.86 55.96-21.99 57.19-18.7L57.19-18.7Q57.28-23.51 57.48-25.23L57.48-25.23 59.3-25.23Q59.15-22.83 59.15-18.65L59.15-18.65ZM57.14-11.49L57.14-11.49Q57.14-15.12 55.98-17.92 54.83-20.71 52.77-22.24 50.71-23.76 48.06-23.76L48.06-23.76Q45.4-23.76 43.37-22.21 41.33-20.67 40.18-17.89 39.02-15.12 39.02-11.49L39.02-11.49Q39.02-7.9 40.18-5.13 41.33-2.36 43.39-0.81 45.45 0.74 48.06 0.74L48.06 0.74Q50.71 0.74 52.77-0.81 54.83-2.36 55.98-5.13 57.14-7.9 57.14-11.49ZM87.62-16.2L87.62-16.2 87.62 2.21 85.61 2.21 85.61-15.9Q85.61-19.93 83.79-21.84 81.97-23.76 78.15-23.76L78.15-23.76Q75.4-23.76 73.24-22.38 71.08-21.01 69.87-18.51 68.67-16 68.67-12.81L68.67-12.81 68.67 2.21 66.56 2.21 66.56-18.65Q66.56-22.83 66.41-25.23L66.41-25.23 68.18-25.23Q68.38-23.61 68.48-19.05L68.48-19.05Q69.85-22.33 72.38-24.03 74.91-25.72 78.54-25.72L78.54-25.72Q82.86-25.72 85.24-23.22 87.62-20.71 87.62-16.2ZM122.57-16.74L122.57-16.74Q122.57-11.04 120.61-6.75 118.64-2.45 114.91-0.12 111.18 2.21 106.03 2.21L106.03 2.21 95.08 2.21 95.08-35.69 106.03-35.69Q111.18-35.69 114.91-33.35 118.64-31.02 120.61-26.73 122.57-22.43 122.57-16.74ZM120.36-16.74L120.36-16.74Q120.36-21.79 118.72-25.6 117.07-29.4 113.83-31.49 110.59-33.58 105.93-33.58L105.93-33.58 97.24-33.58 97.24 0.1 105.93 0.1Q110.54 0.1 113.81-2.01 117.07-4.12 118.72-7.9 120.36-11.68 120.36-16.74ZM150.06-11.83L150.06-11.49 130.18-11.49Q130.18-5.79 132.83-2.53 135.48 0.74 140.09 0.74L140.09 0.74Q143.14 0.74 144.88-0.49 146.62-1.72 147.8-4.66L147.8-4.66 149.57-3.83Q148.44-0.49 146.08 1.1 143.73 2.7 140.04 2.7L140.04 2.7Q136.46 2.7 133.74 0.98 131.01-0.74 129.51-3.95 128.02-7.17 128.02-11.49L128.02-11.49Q128.02-15.71 129.44-18.92 130.86-22.14 133.39-23.93 135.92-25.72 139.16-25.72L139.16-25.72Q144.27-25.72 147.16-21.99 150.06-18.26 150.06-11.83L150.06-11.83ZM130.28-13.45L130.28-13.45 147.95-13.45Q147.55-18.41 145.3-21.08 143.04-23.76 139.16-23.76L139.16-23.76Q135.53-23.76 133.12-20.96 130.72-18.16 130.28-13.45ZM177.35-11.83L177.35-11.49 157.47-11.49Q157.47-5.79 160.12-2.53 162.77 0.74 167.38 0.74L167.38 0.74Q170.43 0.74 172.17-0.49 173.91-1.72 175.09-4.66L175.09-4.66 176.86-3.83Q175.73-0.49 173.37 1.1 171.02 2.7 167.34 2.7L167.34 2.7Q163.75 2.7 161.03 0.98 158.3-0.74 156.81-3.95 155.31-7.17 155.31-11.49L155.31-11.49Q155.31-15.71 156.73-18.92 158.16-22.14 160.68-23.93 163.21-25.72 166.45-25.72L166.45-25.72Q171.56-25.72 174.45-21.99 177.35-18.26 177.35-11.83L177.35-11.83ZM157.57-13.45L157.57-13.45 175.24-13.45Q174.85-18.41 172.59-21.08 170.33-23.76 166.45-23.76L166.45-23.76Q162.82-23.76 160.41-20.96 158.01-18.16 157.57-13.45Z" transform="translate(-3.930000066757202, 35.689998626708984)"></path></g> <!----> <!----> <!----> <!----> <!----> <!----> <!----></g></g> <!----></g></g><defs v-gra="od"></defs></svg>